<mxfile host="app.diagrams.net" modified="2023-10-18T06:34:51.255Z" agent="Mozilla/5.0 (X11; Linux x86_64; rv:109.0) Gecko/20100101 Firefox/114.0" etag="te6NrKdO4_WBRllxZyp_" version="21.6.6" type="github">
  <diagram name="第 1 页" id="WV4udOhp3d38fQWaoo-M">
    <mxGraphModel dx="2074" dy="1078" grid="1" gridSize="10" guides="1" tooltips="1" connect="1" arrows="1" fold="1" page="1" pageScale="1" pageWidth="827" pageHeight="1169" math="0" shadow="0">
      <root>
        <mxCell id="0" />
        <mxCell id="1" parent="0" />
        <mxCell id="KYkqn3qNp2-1i-7Ed5V6-1" value="采集流程图" style="swimlane;childLayout=stackLayout;resizeParent=1;resizeParentMax=0;startSize=20;html=1;" vertex="1" parent="1">
          <mxGeometry x="224" y="90" width="380" height="860" as="geometry" />
        </mxCell>
        <mxCell id="KYkqn3qNp2-1i-7Ed5V6-2" value="主机" style="swimlane;startSize=20;html=1;" vertex="1" parent="KYkqn3qNp2-1i-7Ed5V6-1">
          <mxGeometry y="20" width="190" height="840" as="geometry" />
        </mxCell>
        <mxCell id="KYkqn3qNp2-1i-7Ed5V6-6" value="1)打开设备" style="whiteSpace=wrap;html=1;rounded=0;" vertex="1" parent="KYkqn3qNp2-1i-7Ed5V6-2">
          <mxGeometry x="41.999999999999545" y="110" width="111" height="60" as="geometry" />
        </mxCell>
        <mxCell id="KYkqn3qNp2-1i-7Ed5V6-23" value="9)断开设备" style="whiteSpace=wrap;html=1;rounded=0;" vertex="1" parent="KYkqn3qNp2-1i-7Ed5V6-2">
          <mxGeometry x="37.5" y="750" width="120" height="60" as="geometry" />
        </mxCell>
        <mxCell id="KYkqn3qNp2-1i-7Ed5V6-3" value="上位机软件" style="swimlane;startSize=20;html=1;" vertex="1" parent="KYkqn3qNp2-1i-7Ed5V6-1">
          <mxGeometry x="190" y="20" width="190" height="840" as="geometry" />
        </mxCell>
        <mxCell id="KYkqn3qNp2-1i-7Ed5V6-5" value="打开软件" style="rounded=1;whiteSpace=wrap;html=1;" vertex="1" parent="KYkqn3qNp2-1i-7Ed5V6-3">
          <mxGeometry x="35" y="30" width="120" height="60" as="geometry" />
        </mxCell>
        <mxCell id="KYkqn3qNp2-1i-7Ed5V6-12" value="" style="edgeStyle=orthogonalEdgeStyle;rounded=0;orthogonalLoop=1;jettySize=auto;html=1;" edge="1" parent="KYkqn3qNp2-1i-7Ed5V6-3" source="KYkqn3qNp2-1i-7Ed5V6-9" target="KYkqn3qNp2-1i-7Ed5V6-11">
          <mxGeometry relative="1" as="geometry" />
        </mxCell>
        <mxCell id="KYkqn3qNp2-1i-7Ed5V6-9" value="2)登录" style="whiteSpace=wrap;html=1;rounded=0;" vertex="1" parent="KYkqn3qNp2-1i-7Ed5V6-3">
          <mxGeometry x="35" y="110" width="120" height="60" as="geometry" />
        </mxCell>
        <mxCell id="KYkqn3qNp2-1i-7Ed5V6-14" value="" style="edgeStyle=orthogonalEdgeStyle;rounded=0;orthogonalLoop=1;jettySize=auto;html=1;" edge="1" parent="KYkqn3qNp2-1i-7Ed5V6-3" source="KYkqn3qNp2-1i-7Ed5V6-11" target="KYkqn3qNp2-1i-7Ed5V6-13">
          <mxGeometry relative="1" as="geometry" />
        </mxCell>
        <mxCell id="KYkqn3qNp2-1i-7Ed5V6-11" value="3)设置患者" style="whiteSpace=wrap;html=1;rounded=0;" vertex="1" parent="KYkqn3qNp2-1i-7Ed5V6-3">
          <mxGeometry x="35" y="190" width="120" height="60" as="geometry" />
        </mxCell>
        <mxCell id="KYkqn3qNp2-1i-7Ed5V6-16" value="" style="edgeStyle=orthogonalEdgeStyle;rounded=0;orthogonalLoop=1;jettySize=auto;html=1;" edge="1" parent="KYkqn3qNp2-1i-7Ed5V6-3" source="KYkqn3qNp2-1i-7Ed5V6-13" target="KYkqn3qNp2-1i-7Ed5V6-15">
          <mxGeometry relative="1" as="geometry" />
        </mxCell>
        <mxCell id="KYkqn3qNp2-1i-7Ed5V6-13" value="4)系统配置-扫描设备" style="whiteSpace=wrap;html=1;rounded=0;" vertex="1" parent="KYkqn3qNp2-1i-7Ed5V6-3">
          <mxGeometry x="35" y="280" width="120" height="60" as="geometry" />
        </mxCell>
        <mxCell id="KYkqn3qNp2-1i-7Ed5V6-18" value="" style="edgeStyle=orthogonalEdgeStyle;rounded=0;orthogonalLoop=1;jettySize=auto;html=1;" edge="1" parent="KYkqn3qNp2-1i-7Ed5V6-3" source="KYkqn3qNp2-1i-7Ed5V6-15" target="KYkqn3qNp2-1i-7Ed5V6-17">
          <mxGeometry relative="1" as="geometry" />
        </mxCell>
        <mxCell id="KYkqn3qNp2-1i-7Ed5V6-15" value="5)链接设备并开启采集" style="whiteSpace=wrap;html=1;rounded=0;glass=0;shadow=0;" vertex="1" parent="KYkqn3qNp2-1i-7Ed5V6-3">
          <mxGeometry x="35" y="375" width="120" height="60" as="geometry" />
        </mxCell>
        <mxCell id="KYkqn3qNp2-1i-7Ed5V6-20" value="" style="edgeStyle=orthogonalEdgeStyle;rounded=0;orthogonalLoop=1;jettySize=auto;html=1;" edge="1" parent="KYkqn3qNp2-1i-7Ed5V6-3" source="KYkqn3qNp2-1i-7Ed5V6-17" target="KYkqn3qNp2-1i-7Ed5V6-19">
          <mxGeometry relative="1" as="geometry" />
        </mxCell>
        <mxCell id="KYkqn3qNp2-1i-7Ed5V6-17" value="6)记录数据" style="whiteSpace=wrap;html=1;rounded=0;" vertex="1" parent="KYkqn3qNp2-1i-7Ed5V6-3">
          <mxGeometry x="35" y="460" width="120" height="60" as="geometry" />
        </mxCell>
        <mxCell id="KYkqn3qNp2-1i-7Ed5V6-22" value="" style="edgeStyle=orthogonalEdgeStyle;rounded=0;orthogonalLoop=1;jettySize=auto;html=1;" edge="1" parent="KYkqn3qNp2-1i-7Ed5V6-3" source="KYkqn3qNp2-1i-7Ed5V6-19" target="KYkqn3qNp2-1i-7Ed5V6-21">
          <mxGeometry relative="1" as="geometry" />
        </mxCell>
        <mxCell id="KYkqn3qNp2-1i-7Ed5V6-19" value="7)结束记录" style="whiteSpace=wrap;html=1;rounded=0;" vertex="1" parent="KYkqn3qNp2-1i-7Ed5V6-3">
          <mxGeometry x="35" y="550" width="120" height="60" as="geometry" />
        </mxCell>
        <mxCell id="KYkqn3qNp2-1i-7Ed5V6-21" value="8)结束采集" style="whiteSpace=wrap;html=1;rounded=0;" vertex="1" parent="KYkqn3qNp2-1i-7Ed5V6-3">
          <mxGeometry x="35" y="640" width="120" height="60" as="geometry" />
        </mxCell>
        <mxCell id="KYkqn3qNp2-1i-7Ed5V6-25" value="结束" style="whiteSpace=wrap;html=1;rounded=1;" vertex="1" parent="KYkqn3qNp2-1i-7Ed5V6-3">
          <mxGeometry x="35" y="750" width="120" height="60" as="geometry" />
        </mxCell>
        <mxCell id="KYkqn3qNp2-1i-7Ed5V6-7" value="" style="edgeStyle=orthogonalEdgeStyle;rounded=0;orthogonalLoop=1;jettySize=auto;html=1;" edge="1" parent="KYkqn3qNp2-1i-7Ed5V6-1" source="KYkqn3qNp2-1i-7Ed5V6-5" target="KYkqn3qNp2-1i-7Ed5V6-6">
          <mxGeometry relative="1" as="geometry" />
        </mxCell>
        <mxCell id="KYkqn3qNp2-1i-7Ed5V6-10" value="" style="edgeStyle=orthogonalEdgeStyle;rounded=0;orthogonalLoop=1;jettySize=auto;html=1;" edge="1" parent="KYkqn3qNp2-1i-7Ed5V6-1" source="KYkqn3qNp2-1i-7Ed5V6-6" target="KYkqn3qNp2-1i-7Ed5V6-9">
          <mxGeometry relative="1" as="geometry" />
        </mxCell>
        <mxCell id="KYkqn3qNp2-1i-7Ed5V6-24" value="" style="edgeStyle=orthogonalEdgeStyle;rounded=0;orthogonalLoop=1;jettySize=auto;html=1;" edge="1" parent="KYkqn3qNp2-1i-7Ed5V6-1" source="KYkqn3qNp2-1i-7Ed5V6-21" target="KYkqn3qNp2-1i-7Ed5V6-23">
          <mxGeometry relative="1" as="geometry" />
        </mxCell>
        <mxCell id="KYkqn3qNp2-1i-7Ed5V6-26" value="" style="edgeStyle=orthogonalEdgeStyle;rounded=0;orthogonalLoop=1;jettySize=auto;html=1;" edge="1" parent="KYkqn3qNp2-1i-7Ed5V6-1" source="KYkqn3qNp2-1i-7Ed5V6-23" target="KYkqn3qNp2-1i-7Ed5V6-25">
          <mxGeometry relative="1" as="geometry" />
        </mxCell>
      </root>
    </mxGraphModel>
  </diagram>
</mxfile>
